<?xml version="1.0" encoding="utf-8"?>
<!-- Generator: Adobe Illustrator 23.0.1, SVG Export Plug-In . SVG Version: 6.00 Build 0)  -->
<svg version="1.1" id="svg2" xmlns:svg="http://www.w3.org/2000/svg"
	 xmlns="http://www.w3.org/2000/svg" xmlns:xlink="http://www.w3.org/1999/xlink" x="0px" y="0px" width="400px" height="454.099px"
	 viewBox="0 0 400 454.099" enable-background="new 0 0 400 454.099" xml:space="preserve">
<g>
	<g>
		<path id="path12_6_" fill="#0921A7" d="M137.311,423.108h5.851v30.34h-5.851V423.108"/>
		<path id="path14_6_" fill="#0921A7" d="M147.929,438.279c0-9.103,5.201-15.82,13.003-15.82c4.768,0,8.323,2.384,10.62,6.068
			l-4.032,3.251c-0.867-1.735-3.12-3.902-6.371-3.902c-4.768,0-7.369,4.551-7.369,10.403c0,5.85,2.601,10.403,7.369,10.403
			c3.251,0,5.504-2.168,6.371-3.902l4.032,3.251c-2.297,3.684-5.852,6.068-10.62,6.068
			C153.131,454.099,147.929,447.38,147.929,438.279"/>
		<path id="path16_6_" fill="#0921A7" d="M180.436,428.527h-6.717v-5.419h19.287v5.419h-6.717v24.921h-5.852V428.527"/>
		<path id="path18_1_" fill="#0921A7" d="M196.473,443.047v-19.939h5.851v19.939c0,3.251,1.951,5.635,4.768,5.635
			s4.768-2.384,4.768-5.635v-19.939h5.851v19.939c0,6.284-4.551,11.052-10.619,11.052
			C201.024,454.099,196.473,449.331,196.473,443.047"/>
		<path id="path20_1_" fill="#0921A7" d="M248.051,423.108h17.553v5.419h-11.703v6.934h9.103v4.984h-9.103v7.585h12.137v5.418
			h-17.988V423.108"/>
		<path id="path22_1_" fill="#0921A7" d="M268.205,449.115l3.468-3.468c1.3,1.951,3.251,3.251,5.417,3.251
			c2.167,0,3.901-1.3,3.901-3.467c0-2.601-2.168-3.685-4.639-5.115c-3.164-1.821-6.848-4.205-6.848-9.622
			c0-4.984,3.251-8.235,8.669-8.235c3.684,0,6.501,1.733,8.235,4.117l-3.684,3.467c-0.651-1.082-2.384-2.382-4.335-2.382
			c-1.733,0-3.033,1.3-3.033,3.033c0,2.6,2.167,3.684,4.551,5.201c3.12,1.951,6.935,4.118,6.935,9.536
			c0,5.2-4.117,8.668-9.536,8.668C273.84,454.099,270.156,452.148,268.205,449.115"/>
		<path id="path24_1_" fill="#0921A7" d="M118.902,438.395v-10.087h3.433c3.281,0,4.796,1.404,4.796,3.453
			C127.131,435.487,120.655,437.785,118.902,438.395z M120.972,423.108h-7.926v30.34h5.856v-8.843
			c3.749-1.624,14.074-5.393,14.074-13.349C132.976,425.108,127.736,423.108,120.972,423.108"/>
		<path id="path32_2_" fill="#0921A7" d="M100.416,383.004v-16.725c1.061,0,3.213,0,4.136,0c4.872,0,7.106,2.082,7.106,5.115
			C111.658,377.811,100.416,383.004,100.416,383.004z M120.33,370.652c0-8.557-7.77-12.081-17.796-12.081H91.743v44.966h8.673
			v-10.766c1.367-1.016,3.955-2.625,6.433-4.324l7.452,15.09h9.122l-9.839-20.366C117.32,379.687,120.33,375.483,120.33,370.652"/>
		<path id="path34_2_" fill="#0921A7" d="M211.828,383.004v-16.725c1.06,0,3.212,0,4.135,0c4.872,0,7.107,2.082,7.107,5.115
			C223.069,377.811,211.828,383.004,211.828,383.004z M231.741,370.652c0-8.557-7.769-12.081-17.796-12.081h-10.792v44.966h8.675
			v-10.766c1.367-1.016,3.953-2.625,6.432-4.324l7.452,15.09h9.121l-9.839-20.366C228.732,379.687,231.741,375.483,231.741,370.652"
			/>
		<path id="path36_2_" fill="#0921A7" d="M297.459,383.004v-16.725c1.06,0,3.212,0,4.136,0c4.871,0,7.105,2.082,7.105,5.115
			C308.7,377.811,297.459,383.004,297.459,383.004z M317.372,370.652c0-8.557-7.769-12.081-17.796-12.081h-10.792v44.966h8.675
			v-10.766c1.367-1.016,3.955-2.625,6.432-4.324l7.452,15.09h9.123l-9.839-20.366C314.363,379.687,317.372,375.483,317.372,370.652"
			/>
		<path id="path38_2_" fill="#0921A7" d="M41.756,403.536l11.304-44.966h-8.735l-6.745,30.833h-0.257l-7.129-30.833h-7.195
			l-7.195,30.833h-0.257l-6.617-30.833H0l11.307,44.966h8.222l6.937-29.549h0.193l6.937,29.549H41.756"/>
		<path id="path40_1_" fill="#0921A7" d="M64.335,386.512l4.556-17.666h0.197l4.624,17.666H64.335z M64.335,358.571l-13.491,44.966
			h9.119l2.765-10.276h12.592l2.758,10.276h9.064l-13.299-44.966H64.335"/>
		<path id="path42_1_" fill="#0921A7" d="M152.093,385.871l-16.828-27.3h-7.261v44.966h8.673v-27.3h0.32l16.832,27.3h7.257v-44.966
			h-8.671v27.3H152.093"/>
		<path id="path44_1_" fill="#0921A7" d="M196.735,395.507h-17.984v-11.241h13.489v-7.388h-13.489V366.6h17.344v-8.03h-26.017
			v44.966h26.657V395.507"/>
		<path id="path46_1_" fill="#0921A7" d="M339.209,365.643c6.428,0,8.308,7.804,8.308,15.417c0,7.607-1.88,15.416-8.308,15.416
			c-6.421,0-8.301-7.809-8.301-15.416C330.908,373.447,332.788,365.643,339.209,365.643z M339.209,404.506
			c11.563,0,16.976-10.943,16.976-23.445c0-12.49-5.413-23.452-16.976-23.452c-11.563,0-16.976,10.963-16.976,23.452
			C322.233,393.563,327.647,404.506,339.209,404.506"/>
		<path id="path48_1_" fill="#0921A7" d="M376.236,377.523c-3.535-2.248-7.101-3.853-7.101-7.708c0-2.571,2.283-4.497,4.852-4.497
			c2.891,0,5.817,1.927,6.779,3.533l5.461-5.14c-2.569-3.533-7.1-6.103-12.561-6.103c-8.031,0-13.203,4.817-13.203,12.207
			c0,8.029,5.816,11.563,10.504,14.261c3.663,2.119,7.231,3.727,7.231,7.58c0,3.213-2.925,5.14-6.137,5.14
			c-3.213,0-6.459-1.927-8.385-4.819l-5.14,5.14c2.892,4.496,8.708,7.388,13.847,7.388c8.031,0,14.488-5.14,14.488-12.849
			C386.869,383.627,380.861,380.415,376.236,377.523"/>
		<path id="path50_5_" fill="#0921A7" d="M395.183,394.547c-2.891,0-4.819,2.248-4.819,4.817c0,2.57,1.928,4.818,4.819,4.818
			c2.889,0,4.817-2.248,4.817-4.818C400,396.795,398.072,394.547,395.183,394.547"/>
		<path id="path52_5_" fill="#0921A7" d="M261.1,395.572v-9.366c2.833-1.129,5.969-2.599,8.844-4.406
			c1.348,0.9,4.335,3.269,4.335,6.588C274.279,392.777,270.261,395.394,261.1,395.572L261.1,395.572z M261.1,366.079
			c1.072,0,3.104,0,4.213,0c3.98,0,6.021,1.044,6.021,3.296c0,4.053-8.515,7.672-10.235,8.361V366.079z M275.763,377.128
			c2.327-2.503,3.847-5.4,3.847-8.692c0-6.437-5.497-9.784-13.385-9.866h-13.799v44.966h8.675
			c14.121-0.415,21.399-6.135,21.399-14.815C282.499,382.284,277.08,378.06,275.763,377.128"/>
		<path id="path54_3_" fill="#0921A7" d="M228.193,439.595V428.31c0.716,0,2.168,0,2.791,0c3.288,0,4.795,1.405,4.795,3.451
			C235.779,436.091,228.193,439.595,228.193,439.595z M241.631,431.26c0-5.775-5.243-8.152-12.008-8.152h-7.281v30.34h5.852v-7.264
			c0.923-0.685,2.668-1.771,4.341-2.917l5.028,10.181h6.155l-6.639-13.742C239.6,437.356,241.631,434.52,241.631,431.26"/>
	</g>
	<g>
		
			<linearGradient id="path10_1_" gradientUnits="userSpaceOnUse" x1="-1714.4746" y1="132.5097" x2="-842.5289" y2="132.5097" gradientTransform="matrix(0.3325 0 0 0.3324 625.0724 115.4806)">
			<stop  offset="0" style="stop-color:#4047FF"/>
			<stop  offset="1" style="stop-color:#04006C"/>
		</linearGradient>
		<path id="path10_7_" fill="url(#path10_1_)" d="M344.897,104.829c-2.207,15.1-9.312,64.44-45.412,112.865
			c-36.718,49.865-85,74.059-99.566,81.502c-14.567-7.445-62.849-31.636-99.566-81.503c-36.101-48.427-43.204-97.77-45.413-112.865
			l21.933-11.759V76.756l21.735-11.77V48.684c30.07-14.336,63.198-23.761,101.307-28.821c38.11,5.06,71.238,14.488,101.307,28.821
			v16.302l21.735,11.77v16.313L344.897,104.829z"/>
		<path id="path12_11_" fill="#FFC200" d="M344.898,104.759c-2.208,15.106-9.313,64.462-45.411,112.907
			c-36.72,49.883-85.001,74.085-99.568,81.531c-14.566-7.446-62.848-31.649-99.567-81.531
			c-36.099-48.444-43.203-97.8-45.411-112.907l21.935-11.764V76.677L98.61,64.902V48.596
			c30.071-14.338,63.199-23.769,101.308-28.833c38.11,5.064,71.238,14.494,101.309,28.833v16.306l21.735,11.774v16.318
			L344.898,104.759z M342.598,81.277V65.013l-21.735-11.774V36.232l-11.15-5.311C278.029,15.814,242.995,5.725,202.585,0.356
			L199.944,0l-2.64,0.356c-40.41,5.369-75.444,15.458-107.127,30.566l-11.15,5.311v17.006L57.292,65.013v16.264L33.674,93.943
			l1.867,13.5c6.257,45.294,22.77,86.286,49.06,121.861c26.57,35.947,62.437,65.356,106.601,87.43l8.741,4.372l8.742-4.372
			c44.164-22.074,80.031-51.483,106.6-87.43c26.29-35.575,42.804-76.567,49.061-121.861l1.867-13.5L342.598,81.277"/>
		<path id="path14_11_" fill="#FFC200" d="M167.433,59.011l1.009,132.673l-0.936,0.547c-14.044-35.496-22.418-79.798-25.057-124.221
			c-6.897,3.099-14.214,6.937-21.713,11.688c3.031,40.304,9.917,75.571,22.297,109.044l-7.004,4.059
			c-18.562-25.994-30.689-57.608-39.017-95.11c-5.734,5.152-11.428,10.924-16.982,17.39c10.883,45.011,28.01,79.114,53.046,106.88
			l19.299-11.537c9.453,19.701,22.738,39.142,37.331,54.681V55.079C182.275,55.801,174.93,57.083,167.433,59.011 M259.297,196.666
			c-6.213,7.162-16.388,18.086-27.399,26.595V163c0,0,39.902-22.454,41.367-23.414c11.942,3.025,11.337,11.81,11.336,12.724
			C284.589,163.375,273.279,180.505,259.297,196.666L259.297,196.666z M231.898,80.194c10.869,0,46.034,11.118,46.034,25.159
			c0,5.061-4.467,12.314-18.376,19.619l-27.658,14.83V80.194z M291.667,127.403c7.865-8.708,9.54-15.045,9.54-22.709
			c0-10.849-8.961-20.502-21.997-28.798c-7.874-5.012-19.926-11.081-37.504-15.98c-10.113-2.717-20.659-4.367-31.511-4.839v210.025
			c44.143-22.727,96.622-85.002,96.887-116.686C307.163,138.733,302.048,132.399,291.667,127.403"/>
	</g>
</g>
</svg>
