<svg xmlns="http://www.w3.org/2000/svg" width="24" height="24" viewBox="0 0 24 24" fill="none">
<path d="M15.009 12.9242C13.9054 12.9242 13.0116 13.8228 13.0116 14.9299V21.95H8.01798C8.01798 21.95 8.0769 9.91562 8.01798 8.91275H13.0116V10.402C13.0116 10.402 14.5576 8.95487 16.9455 8.95487C19.9027 8.95487 22 11.104 22 15.2769V21.95H17.0064V14.9299C17.0064 13.8228 16.1126 12.9242 15.009 12.9242ZM3.51377 6.90702H3.48481C1.97575 6.90702 1 5.72163 1 4.41891C1 3.0861 2.00571 2 3.54373 2C5.08275 2 6.02853 3.1212 6.0585 4.45401C6.0585 5.75774 5.08275 6.90702 3.51377 6.90702ZM6.02054 21.95H1.02697V8.91275H6.02054V21.95Z" fill="#fff"/>
</svg>