<svg width="20" height="20" viewBox="0 0 20 20" fill="none" xmlns="http://www.w3.org/2000/svg">
<path fillRule="evenodd" clipRule="evenodd" d="M5.49533 1.6859C5.15677 0.876316 4.80103 0.860441 4.47964 0.844567L3.61607 0.833984C3.31431 0.833984 2.82609 0.955686 2.41393 1.44249C2.00177 1.9293 0.833984 3.10663 0.833984 5.49833C0.833984 7.89003 2.45073 10.2024 2.67644 10.5278C2.90215 10.8532 5.79709 15.9197 10.3824 17.8696C14.1924 19.4887 14.9677 19.1686 15.7944 19.0866C16.6212 19.0046 18.4637 17.9092 18.839 16.7742C19.2144 15.6392 19.2144 14.6656 19.1015 14.4619C18.9887 14.2582 18.6894 14.1365 18.2355 13.8931C17.7841 13.6497 15.5663 12.4724 15.1541 12.311C14.742 12.1496 14.4402 12.0676 14.1384 12.5544C13.8367 13.0412 12.9731 14.1365 12.7106 14.4619C12.4481 14.7873 12.1856 14.827 11.7342 14.5836C11.2827 14.3402 9.83037 13.8269 8.10813 12.1707C6.76861 10.8823 5.86333 9.2896 5.59837 8.80279C5.33341 8.31598 5.57138 8.05406 5.79709 7.81066C5.99826 7.59371 6.2485 7.24184 6.47421 6.95875C6.69991 6.67566 6.77351 6.47194 6.92562 6.14652C7.07773 5.8211 7.00168 5.53801 6.88882 5.29461C6.77597 5.05121 5.90013 2.64628 5.49778 1.68325" fill="#1D2B4D"/>
</svg>
